<svg id="SvgjsSvg1001" width="288" height="288" xmlns="http://www.w3.org/2000/svg" version="1.1" xmlns:xlink="http://www.w3.org/1999/xlink" xmlns:svgjs="http://svgjs.com/svgjs"><defs id="SvgjsDefs1002"></defs><g id="SvgjsG1008"><svg xmlns="http://www.w3.org/2000/svg" width="288" height="288" version="1.0" viewBox="0 0 1080 665"><g transform="matrix(.1 0 0 -.1 0 665)" fill="#e31818" class="color000 svgShape"><path d="M3890 5037 c0 -312 -3 -407 -12 -414 -12 -9 -147 -70 -743 -333 -121-54 -380 -168 -575 -255 -195 -86 -445 -196 -555 -244 -182 -80 -348 -160
-302 -146 11 3 31 8 45 12 15 3 135 44 267 91 294 103 646 225 740 257 84 28
560 196 735 258 69 25 208 75 310 112 102 36 250 90 330 120 80 30 201 74 270
99 69 24 199 72 290 106 91 33 190 70 220 80 30 10 98 35 150 55 52 19 101 33
110 29 17 -7 143 -43 365 -103 83 -23 170 -48 195 -56 25 -7 128 -37 230 -65
183 -51 207 -58 345 -99 66 -20 302 -88 335 -97 17 -4 363 -102 395 -111 220
-63 411 -117 455 -128 59 -15 230 -64 237 -68 5 -3 53 -17 108 -32 156 -42
305 -83 360 -99 52 -15 169 -46 360 -96 61 -16 189 -50 285 -75 96 -26 182
-48 190 -49 8 -2 22 -6 30 -9 8 -3 67 -18 130 -32 63 -15 130 -31 149 -36 49
-12 26 5 -34 26 -27 9 -198 68 -380 130 -181 62 -397 136 -480 165 -82 28
-195 66 -250 85 -109 36 -421 143 -445 152 -8 3 -64 23 -125 43 -60 21 -184
63 -275 94 -91 31 -174 61 -185 65 -11 5 -63 24 -115 41 -126 43 -556 191
-650 225 -41 14 -131 46 -200 70 -226 78 -523 182 -650 228 -69 25 -191 68
-271 96 l-147 51 -188 -84 c-104 -46 -263 -117 -354 -158 -263 -120 -397 -178
-409 -178 -7 0 -12 102 -13 338 l-3 337 -137 3 -138 3 0 -404z" fill="#e31818" class="color000 svgShape"></path><path d="M4984 4475c-3-7-4-37-2-66l3-54 65 0 65 0 0 65 0 65-63 1c-42 1-65-3-68-11zM5174 4481c-2-2-4-30-4-62l0-58 35-7c19-3 51-3 70 0l36 7-3 62-3 62-63 0c-35 0-66-2-68-4zM4115 4429c-27-11-92-36-143-56l-94-36 6-196c3-108 9-436 12-730 7-593 12-549-63-481-21 19-81 73-133 120-52 47-97 87-100 90-3 3-57 52-120 110-63 58-137 126-165 151-27 25-81 74-120 110-38 35-83 76-100 91-16 15-36 28-42 28-10 0-13-140-13-665l0-665 25-6c33-8 237-1 253 9 9 6 12 87 12 348 0 340 2 358 34 327 7-7 51-47 97-88 132-119 320-289 374-340 178-166 338-301 346-293 13 13 7 2185-6 2189-5 2-32-6-60-17zM4980 4245l0-65 70 0 70 0 0 65 0 65-70 0-70 0 0-65zM5174 4297c-3-8-4-36-2-63l3-49 65 0 65 0 0 60 0 60-63 3c-47 2-64-1-68-11zM8955 3639c-27-6-92-31-144-56-271-134-408-428-347-746 8-42 31-110 50-152 155-335 531-483 861-338 82 37 136 74 203 143 69 70 115 144 150 242 24 66 26 87 27 218 0 165-11 221-63 325-42 85-79 134-151 202-69 65-211 138-306 158-78 16-203 18-280 4zm271-290c70-27 143-98 185-184 30-62 34-79 37-171 7-190-58-318-201-391-44-23-64-27-137-27-97 1-140 15-208 71-55 45-103 119-126 197-27 84-18 239 17 316 47 104 136 182 242 211 41 11 129 1 191-22zM1965 3615c-221-49-415-225-492-447-34-99-43-281-19-390 44-197 178-371 351-456 115-56 190-74 310-75 91 0 125 5 195 26 335 103 528 403 489 757-17 148-64 254-174 388-27 34-159 125-221 152-128 58-301 76-439 45zm277-285c48-14 129-78 167-133 16-24 39-73 51-108 19-54 21-80 18-171-4-95-8-113-37-172-39-79-106-147-181-183-46-22-69-27-140-27-71-1-94 4-140 25-102 48-158 113-200 234-24 71-27 186-5 268 35 134 150 251 275 278 42 9 141 4 192-11zM5963 3618c-6-7-39-71-73-143-35-71-146-299-247-505-267-544-317-649-310-656 4-4 68-6 143-6 99 1 141 5 149 14 6 7 27 48 45 91l33 77 66 0c36 1 157 3 268 6l203 6 35-75c19-41 35-80 35-86 0-6 5-11 11-11 5 0 7-5 4-10-4-7 42-10 142-8 127 3 148 5 151 19 2 9-15 52-36 95-109 221-592 1181-600 1192-7 11-11 11-19 0zm34-555c94-211 140-328 136-340-4-10-41-13-169-13-184 0-179-3-145 73 11 23 41 94 66 157 55 134 73 170 83 170 5 0 18-21 29-47zM7914 3594c-6-3-10-17-9-32 2-15 6-265 10-557 6-525 11-664 21-675 7-6 273-7 283 0 3 3 3 154 0 335-4 182-7 445-8 586-1 141-4 277-7 303l-7 46-136-1c-75 0-141-3-147-5zM4347 3583c-9-8-9-180-1-222l6-31 207-2 206-3 5-503c4-432 7-504 20-512 20-13 260-13 260 0 0 6 6 10 13 10 11 0 13 91 13 503l-1 502 203 3c111 1 202 6 203 10 0 4 3 16 5 27 2 11 1 66-2 123l-6 102-563 0c-309 0-565-3-568-7zM6740 3328c0-145 3-429 7-631 5-322 8-369 22-375 9-4 74-5 145-2l129 5-2 248-2 247 24 0c18 0 35-13 58-41 38-48 79-108 79-115 0-3 5-10 10-17 6-7 24-30 40-52 16-22 33-44 38-50 4-5 41-58 81-117l74-108 164 0c89 0 163 4 163 9 0 5-34 55-76 112-41 57-108 148-147 203-40 54-77 104-82 110-6 6-26 33-44 59-26 39-30 51-21 62 7 8 19 15 26 15 8 0 14 5 14 10 0 6 6 10 14 10 8 0 39 27 70 60 45 49 60 74 77 131 67 220-61 424-298 474-49 11-139 15-315 15l-248 0 0-262zm486 27c110-32 155-141 102-245-13-24-34-52-48-62-34-24-141-50-192-46l-43 3-6 60c-9 82-11 290-2 298 12 13 139 7 189-8zM8590 2189c-1421-13-2265-20-3805-29-869-5-1977-12-2462-16l-883-6 0-44 0-44 128 0c344 1 4996 30 5457 35 292 2 784 7 1095 10 1149 10 1644 17 1652 21 16 10 9 72-9 78-9 4-120 6-247 4-127-1-544-5-926-9zM9508 2009c-53-15-116-73-127-117-10-38-3-91 17-127 19-36 65-72 147-115 103-54 130-80 121-114-14-57-98-70-209-32l-67 23 6-66c3-36 7-71 9-77 5-18 151-47 200-41 64 9 132 45 163 85 22 29 27 48 30 106 4 66 2 74-27 113-21 29-54 55-102 80-131 70-159 91-159 116 0 13 8 31 18 40 26 23 106 21 161-3 24-11 45-20 47-20 2 0 4 29 4 63l0 64-39 11c-57 18-151 23-193 11zM7763 1986c-81-26-146-85-191-171-22-43-26-63-27-140 0-82 3-96 33-157 36-73 96-130 172-163 65-29 198-27 263 4 60 28 120 89 155 156 23 44 26 62 26 145 0 83-3 102-28 152-31 65-99 131-166 161-57 26-178 32-237 13zm173-135c115-52 150-222 67-321-102-121-290-57-309 106-12 99 38 190 121 219 53 19 72 18 121-4zM8505 1743c3-142 8-286 11-320l6-63 65 0 65 0-4 170c-2 113 0 170 7 170 11 0 255-211 355-307l55-52 3 67c2 37 1 185-3 330l-7 262-64 0-64 0 0-175c0-96-3-175-7-175-8 0-60 44-213 180-148 130-195 170-203 170-4 0-5-116-2-257zM5796 1953c-24-42-306-613-306-618 0-3 31-5 69-5l70 0 23 43 23 42 140 2 140 3 20-43c19-40 22-42 67-43 26-1 59 1 73 3 24 5 21 12-136 324-88 175-162 319-164 319-2 0-11-12-19-27zm58-308c20-46 39-91 42-100 5-13-7-15-86-15-79 0-91 2-86 15 28 74 80 185 86 185 4 0 24-38 44-85zM6254 1966c-3-7-4-35-2-62l3-49 101-3 102-3 7-255 7-255 72 3 71 3-4 252-3 251 53 6c30 4 77 7 104 9l50 2 0 55 0 55-278 3c-230 2-278 0-283-12zM7090 1742c0-282 7-392 27-399 7-3 38-2 68 2l55 6 0 172c0 95-3 236-7 315l-6 142-69 0-68 0 0-238zM4104 1956c-93-30-170-103-205-195-21-57-26-175-10-229 57-188 279-292 453-210 76 35 142 98 175 167 24 49 28 68 28 146 0 78-4 97-28 146-32 67-100 132-165 162-59 26-188 33-248 13zm183-136c29-13 52-34 73-66 26-42 30-57 30-119 0-62-4-78-28-114-50-74-120-103-200-82-49 14-109 73-122 121-32 113 11 218 105 261 51 24 89 23 142-1zM4770 1962c0-6 32-77 71-158 39-82 89-187 111-234 67-142 119-245 127-253 6-6 276 569 296 632 6 20 3 21-63 21l-70 0-73-171c-41-94-78-171-84-171-5 0-44 76-86 168l-76 169-76 3c-43 2-77-1-77-6zM2980 1635l0-325 70 0 70 0 0 169c0 97 4 172 10 176 9 5 52-31 310-264l115-103 3 323c1 178 0 330-3 337-3 9-23 12-67 10l-63-3-3-170c-1-93-6-173-10-177-8-8-72 44-212 172-117 106-204 180-212 180-5 0-8-146-8-325zM2247 1943c-4-3-7-150-7-325l0-318 199 0c147 0 201 3 208 13 5 6 9 35 9 62l-1 50-133 3-133 3 3 67 3 67 108 3c59 1 107 4 107 5 1 1 3 28 7 60 4 44 2 57-8 58-8 0-59 1-114 2l-100 2-3 55c-4 75 4 80 145 80l113 0 0 60 0 60-198 0c-109 0-202-3-205-7zM1428 1632c-2-170-2-316 0-325 3-14 16-17 73-17l69 0 0 53c0 28 3 89 7 135 5 68 9 82 22 80 8-2 54-59 102-128l86-125 82-3c97-3 99-17-19 147-44 62-80 119-80 126 0 7 18 24 41 39 65 44 95 132 68 203-17 46-69 92-123 108-33 10-95 15-188 15l-137 0-3-308zm293 179c70-71 8-171-106-171l-35 0 0 100 0 100 56 0c48 0 59-4 85-29zM9678 1325c-3-3-815-11-2028-20-360-3-821-7-1025-10-203-3-766-8-1250-11-484-4-882-8-885-9-3-2-437-6-965-10-528-4-963-9-966-11-3-2-222-4-485-6-264-1-515-3-560-6l-81-3-1-41-2-41 1003 8c551 4 1004 8 1007 10 3 2 478 6 1055 9 578 4 1075 8 1105 11 30 2 471 7 980 10 509 4 932 8 940 10 16 4 1907 21 1975 18 22-1 100 0 173 3l132 6 0 39c0 36-2 39-27 40-16 1-42 3-60 5-17 1-33 1-35-1z" fill="#e31818" class="color000 svgShape"></path></g></svg></g></svg>