<?xml version="1.0" standalone="no"?>
<!DOCTYPE svg PUBLIC "-//W3C//DTD SVG 20010904//EN"
 "http://www.w3.org/TR/2001/REC-SVG-20010904/DTD/svg10.dtd">
<svg version="1.0" xmlns="http://www.w3.org/2000/svg"
 width="132.000000pt" height="132.000000pt" viewBox="0 0 132.000000 132.000000"
 preserveAspectRatio="xMidYMid meet">
<metadata>
Created by potrace 1.14, written by Peter Selinger 2001-2017
</metadata>
<g transform="translate(0.000000,132.000000) scale(0.100000,-0.100000)"
fill="#000000" stroke="none">
<path d="M484 912 c-6 -4 -10 -27 -10 -52 l1 -45 -112 -50 c-61 -27 -110 -51
-109 -53 2 -1 52 15 112 35 l109 38 0 -87 c1 -49 -2 -88 -5 -88 -3 0 -24 18
-48 40 -24 22 -45 40 -47 40 -3 0 -5 -36 -5 -80 0 -73 2 -80 20 -80 17 0 20 7
20 41 l0 42 46 -43 c25 -23 48 -39 51 -36 3 3 5 63 4 134 l-1 129 59 23 59 22
218 -61 c316 -88 309 -83 -69 49 l-149 52 -59 -26 -59 -25 0 39 c0 40 -8 54
-26 42z"/>
<path d="M610 778 c0 -12 7 -18 23 -17 21 0 21 1 2 9 -17 7 -17 9 -2 9 9 1 17
5 17 10 0 6 -9 9 -20 8 -12 -1 -20 -8 -20 -19z"/>
<path d="M244 692 c-36 -5 -66 -46 -66 -88 0 -60 41 -86 119 -76 7 1 20 13 29
28 43 65 -7 148 -82 136z m40 -45 c22 -16 18 -65 -6 -81 -41 -25 -81 52 -42
81 10 7 21 13 24 13 3 0 14 -6 24 -13z"/>
<path d="M1067 680 c-33 -26 -43 -70 -23 -108 17 -33 34 -42 75 -42 77 0 102
134 29 155 -13 4 -30 9 -39 11 -9 2 -27 -5 -42 -16z m76 -41 c30 -42 -17 -95
-55 -61 -22 19 -23 46 -2 66 21 22 40 20 57 -5z"/>
<path d="M530 670 c0 -12 6 -20 13 -19 33 4 37 -2 37 -61 0 -53 2 -60 20 -60
16 0 19 8 22 63 3 57 5 62 26 61 15 -1 22 4 22 17 0 17 -8 19 -70 19 -64 0
-70 -2 -70 -20z"/>
<path d="M688 611 c-31 -63 -34 -77 -21 -79 8 -2 19 2 23 9 10 15 73 15 78 0
4 -11 42 -16 42 -6 0 10 -70 144 -77 148 -5 3 -25 -29 -45 -72z m55 -11 c4
-15 0 -20 -13 -20 -13 0 -17 5 -13 20 3 11 9 20 13 20 4 0 10 -9 13 -20z"/>
<path d="M825 680 c-7 -11 -6 -105 2 -132 8 -32 33 -21 33 14 l0 32 28 -33
c17 -21 34 -32 46 -30 17 4 16 6 -5 33 -18 23 -20 32 -11 47 18 28 14 57 -7
69 -25 13 -78 13 -86 0z m68 -26 c9 -10 -4 -34 -19 -34 -8 0 -14 9 -14 20 0
19 19 27 33 14z"/>
<path d="M969 683 c-4 -41 -3 -137 2 -145 4 -6 14 -8 22 -5 23 9 17 151 -6
155 -9 2 -17 0 -18 -5z"/>
<path d="M290 509 c-76 -3 -15 -6 179 -7 162 -1 291 1 287 5 -8 8 -309 10
-466 2z"/>
<path d="M770 508 c0 -5 38 -7 84 -6 90 3 106 -1 81 -22 -19 -16 -19 -34 1
-54 14 -15 12 -16 -20 -16 -32 0 -34 2 -32 28 4 32 -3 54 -14 47 -4 -3 -7 -21
-5 -40 2 -32 0 -35 -27 -35 -24 0 -28 4 -28 28 0 15 5 33 12 40 9 9 4 12 -25
12 -20 0 -37 -4 -37 -10 0 -5 5 -9 12 -7 6 1 14 -13 18 -30 7 -31 6 -33 -22
-33 -16 0 -27 4 -24 8 3 5 -4 24 -16 42 l-20 34 -21 -45 -22 -44 -63 1 c-35 0
-65 -3 -67 -6 -2 -4 98 -6 223 -4 125 2 277 3 337 4 75 0 105 3 95 10 -10 6
-11 10 -2 10 20 0 14 28 -10 44 -18 13 -19 16 -5 16 9 0 17 4 17 9 0 12 -27 8
-41 -6 -8 -8 -6 -15 10 -25 24 -15 29 -33 6 -24 -9 3 -15 0 -15 -9 0 -8 -9
-15 -20 -15 -17 0 -20 7 -20 40 0 22 -4 40 -10 40 -5 0 -10 -7 -10 -16 0 -15
-2 -15 -25 0 l-25 16 0 -40 c0 -38 -1 -40 -32 -40 -25 0 -29 3 -20 12 21 21
14 58 -13 68 -14 5 -25 13 -25 18 0 5 -40 8 -90 8 -49 0 -90 -4 -90 -8z m210
-59 c0 -23 -28 -26 -37 -3 -6 16 15 37 29 28 4 -3 8 -14 8 -25z m120 -31 c0
-5 -11 -8 -24 -8 -19 0 -23 4 -19 19 4 17 8 18 24 8 10 -6 19 -15 19 -19z
m-370 -2 c0 -2 -11 -6 -25 -8 -13 -3 -22 -1 -19 3 5 9 44 13 44 5z"/>
<path d="M971 510 c13 -9 219 -3 228 5 3 3 -50 5 -118 4 -67 -1 -117 -5 -110
-9z"/>
<path d="M178 483 c-2 -5 -5 -23 -7 -40 -2 -25 2 -33 14 -33 9 0 13 5 10 10
-3 6 -1 10 4 10 6 0 11 -4 11 -10 0 -5 4 -10 8 -10 13 0 11 64 -2 72 -14 10
-34 10 -38 1z m32 -23 c0 -5 -4 -10 -10 -10 -5 0 -10 5 -10 10 0 6 5 10 10 10
6 0 10 -4 10 -10z"/>
<path d="M273 453 c0 -21 4 -41 9 -44 4 -3 -15 -6 -43 -6 -28 -1 -54 -4 -57
-8 -3 -3 67 -5 156 -5 89 1 160 5 157 9 -2 5 -41 7 -85 6 -44 -2 -80 0 -80 5
0 4 -10 12 -22 18 -18 8 -19 11 -5 11 9 1 17 6 17 11 0 6 -8 10 -17 11 -14 0
-13 2 5 9 30 13 28 20 -7 20 -27 0 -29 -3 -28 -37z"/>
<path d="M362 450 c0 -22 3 -40 9 -40 5 0 9 10 9 22 l0 21 24 -22 c27 -25 35
-19 34 27 -1 35 -18 45 -18 11 l0 -20 -29 20 -29 21 0 -40z"/>
<path d="M480 470 c-11 -21 -3 -47 23 -68 11 -9 18 -7 35 11 27 29 27 28 13
55 -15 28 -56 29 -71 2z m53 -14 c3 -7 0 -19 -6 -25 -14 -14 -38 5 -30 25 7
18 29 18 36 0z"/>
<path d="M597 455 c20 -42 30 -41 49 3 14 34 3 45 -16 15 -10 -17 -10 -17 -20
0 -20 32 -30 17 -13 -18z"/>
</g>
</svg>
